#!OML:ASF H:\Not Pregnant\Project 1\Capture day 1\Session 1\non-pregnant.ASF
:FULLY-SPECIFIED
:DEGREES
834
root 14.2828 16.2126 -0.401624 13.4087 -0.577695 -6.08922
lowerback -4.07159 2.35358 8.75292
upperback -3.53308 2.93098 5.1887
thorax -1.23184 1.35504 0.57304
lowerneck 21.0045 -11.9699 -24.1829
upperneck -12.0666 -19.4647 49.2965
head 2.04575 -13.2407 26.1818
rclavicle -2.6339e-014 -1.27222e-014
rhumerus -18.7492 4.89864 -87.6293
rradius 25.2383
rwrist 27.143
rhand -21.8447 -4.51478
rfingers 7.12502
rthumb 4.55869 -34.4457
lclavicle -2.6339e-014 -1.27222e-014
lhumerus -41.51 -36.8036 107.738
lradius 34.1656
lwrist 31.2002
lhand -9.88284 -12.5281
lfingers 7.12502
lthumb 16.0965 16.8234
rfemur -30.4414 -2.13885 34.1254
rtibia 32.1926
rfoot -15.6976 14.2206
rtoes -2.45178
lfemur -26.0061 8.66933 -12.9899
ltibia 65.4391
lfoot -5.30165 -8.36701
ltoes -36.2215
835
root 14.2919 16.2018 -0.304556 13.3404 -0.826898 -6.11299
lowerback -4.13532 2.30471 8.574
upperback -3.3875 2.84906 5.29524
thorax -1.06087 1.32642 0.783467
lowerneck 21.025 -11.9437 -24.1714
upperneck -11.9912 -19.4582 49.3604
head 2.07211 -13.2493 26.2647
rclavicle 1.42131e-014 -2.54444e-014
rhumerus -18.6691 3.86251 -86.3695
rradius 25.9543
rwrist 23.5107
rhand -20.1729 -5.63268
rfingers 7.12502
rthumb 6.17286 -35.5227
lclavicle 1.42131e-014 -2.54444e-014
lhumerus -40.3226 -36.3305 106.743
lradius 34.0575
lwrist 31.1436
lhand -9.52346 -12.4448
lfingers 7.12502
lthumb 16.4425 16.8784
rfemur -30.0397 -2.01161 34.057
rtibia 32.41
rfoot -16.2237 14.1141
rtoes -2.67953
lfemur -26.9652 8.51083 -12.8248
ltibia 65.7385
lfoot -6.4491 -7.54409
ltoes -36.3253
836
root 14.3008 16.1918 -0.207002 13.2974 -1.04327 -6.14672
lowerback -4.23096 2.23829 8.41416
upperback -3.25996 2.74098 5.39449
thorax -0.890397 1.28337 0.975741
lowerneck 21.036 -11.9082 -24.1708
upperneck -11.8602 -19.4578 49.406
head 2.11536 -13.2556 26.3309
rclavicle -1.91827e-014 -3.49861e-014
rhumerus -18.5582 2.66303 -85.0933
rradius 26.5341
rwrist 20.3198
rhand -18.2994 -6.63679
rfingers 7.12502
rthumb 7.98135 -36.4661
lclavicle -1.91827e-014 -3.49861e-014
lhumerus -39.1518 -35.635 105.699
lradius 33.9659
lwrist 31.1668
lhand -9.39246 -12.293
lfingers 7.12502
lthumb 16.5686 17.0197
rfemur -29.6603 -1.92305 34.0067
rtibia 32.6095
rfoot -16.7402 14.0346
rtoes -2.86823
lfemur -27.9508 8.28987 -12.6493
ltibia 65.9254
lfoot -7.5749 -6.76261
ltoes -36.5164
837
root 14.31 16.1826 -0.109092 13.2708 -1.22512 -6.18849
lowerback -4.34215 2.15072 8.27821
upperback -3.15197 2.6041 5.48641
thorax -0.730812 1.22431 1.14613
lowerneck 21.0277 -11.8636 -24.1844
upperneck -11.6602 -19.4669 49.4252
head 2.18138 -13.2587 26.3688
rclavicle -2.25621e-014 2.54444e-014
rhumerus -18.4195 1.31041 -83.8106
rradius 26.9584
rwrist 17.565
rhand -16.2864 -7.46491
rfingers 7.12502
rthumb 9.92385 -37.211
lclavicle -2.25621e-014 2.54444e-014
lhumerus -38.0191 -34.7333 104.63
lradius 33.8994
lwrist 31.2738
lhand -9.46299 -12.0476
lfingers 7.12502
lthumb 16.5007 17.2707
rfemur -29.29 -1.87151 33.9668
rtibia 32.7874
rfoot -17.2407 13.9845
rtoes -2.96462
lfemur -28.9505 8.0005 -12.4643
ltibia 66.0012
lfoot -8.64557 -6.02734
ltoes -36.7437
838
root 14.3198 16.1739 -0.0110956 13.2491 -1.37914 -6.2398
lowerback -4.44952 2.04343 8.17621
upperback -3.06251 2.44223 5.56728
thorax -0.590996 1.15088 1.28448
lowerneck 21.0014 -11.8093 -24.2116
upperneck -11.3896 -19.4851 49.4154
head 2.2693 -13.258 26.3763
rclavicle 1.22253e-014 -1.11319e-014
rhumerus -18.2653 -0.171274 -82.5417
rradius 27.2325
rwrist 15.2242
rhand -14.2295 -8.12327
rfingers 7.12502
rthumb 11.9078 -37.7646
lclavicle 1.22253e-014 -1.11319e-014
lhumerus -36.9375 -33.6369 103.543
lradius 33.8754
lwrist 31.5043
lhand -9.68238 -11.6792
lfingers 7.12502
lthumb 16.2895 17.6566
rfemur -28.9173 -1.85151 33.9384
rtibia 32.944
rfoot -17.7275 13.9509
rtoes -3.03107
lfemur -29.9473 7.64514 -12.2656
ltibia 65.9676
lfoot -9.63268 -5.34364
ltoes -36.955
839
root 14.3303 16.1657 0.0867698 13.2299 -1.52324 -6.28896
lowerback -4.53697 1.91872 8.09236
upperback -2.99628 2.26138 5.6355
thorax -0.485161 1.06603 1.39729
lowerneck 20.9569 -11.7415 -24.2607
upperneck -11.0412 -19.5112 49.3707
head 2.38054 -13.2517 26.3517
rclavicle 1.3418e-014 4.92986e-014
rhumerus -18.1166 -1.75089 -81.2958
rradius 27.3725
rwrist 13.2732
rhand -12.1735 -8.63299
rfingers 7.12502
rthumb 13.8898 -38.1491
lclavicle 1.3418e-014 4.92986e-014
lhumerus -35.9399 -32.3825 102.474
lradius 33.8966
lwrist 31.8796
lhand -10.0903 -11.2431
lfingers 7.12502
lthumb 15.8967 18.1244
rfemur -28.5399 -1.84006 33.9049
rtibia 33.0808
rfoot -18.1984 13.9214
rtoes -3.10444
lfemur -30.9329 7.23248 -12.0657
ltibia 65.8191
lfoot -10.5083 -4.72345
ltoes -37.054
840
root 14.3413 16.1582 0.184777 13.212 -1.66964 -6.31702
lowerback -4.59401 1.77954 8.00626
upperback -2.96288 2.06845 5.68467
thorax -0.429397 0.973059 1.48904
lowerneck 20.8893 -11.6646 -24.328
upperneck -10.5969 -19.5534 49.2738
head 2.51993 -13.2404 26.2709
rclavicle -6.75868e-015 -6.20208e-014
rhumerus -18.0045 -3.38599 -80.0826
rradius 27.3914
rwrist 11.7032
rhand -10.2738 -8.9878
rfingers 7.12502
rthumb 15.7199 -38.3693
lclavicle -6.75868e-015 -6.20208e-014
lhumerus -35.0498 -30.9911 101.438
lradius 33.9794
lwrist 32.4564
lhand -10.605 -10.6747
lfingers 7.12502
lthumb 15.4009 18.7316
rfemur -28.1551 -1.82244 33.8434
rtibia 33.1988
rfoot -18.6524 13.8826
rtoes -3.21455
lfemur -31.8949 6.76771 -11.8867
ltibia 65.55
lfoot -11.2817 -4.15796
ltoes -37.0708
